<?xml version="1.0" encoding="UTF-8"?><svg xmlns="http://www.w3.org/2000/svg" xmlns:xlink="http://www.w3.org/1999/xlink" fill-opacity="1" color-rendering="auto" color-interpolation="auto" text-rendering="auto" stroke="black" stroke-linecap="square" width="765" stroke-miterlimit="10" shape-rendering="auto" stroke-opacity="1" fill="black" stroke-dasharray="none" font-weight="normal" stroke-width="1" height="430" font-family="'Dialog'" font-style="normal" stroke-linejoin="miter" font-size="12px" stroke-dashoffset="0" image-rendering="auto">
  <!--Generated by ySVG 2.6-->
  <defs id="genericDefs"/>
  <g>
    <g fill="white" text-rendering="geometricPrecision" shape-rendering="geometricPrecision" transform="translate(-608,-264)" stroke="white">
      <rect x="608" width="765" height="430" y="264" clip-path="url(#clipPath2)" stroke="none"/>
    </g>
    <g fill="rgb(255,204,0)" text-rendering="geometricPrecision" shape-rendering="geometricPrecision" transform="matrix(1,0,0,1,-608,-264)" stroke="rgb(255,204,0)">
      <ellipse rx="55" ry="25" clip-path="url(#clipPath2)" cx="960" cy="304" stroke="none"/>
    </g>
    <g font-size="10px" stroke-linecap="butt" transform="matrix(1,0,0,1,-608,-264)" text-rendering="geometricPrecision" font-family="sans-serif" shape-rendering="geometricPrecision" stroke-miterlimit="1.45">
      <text x="909.36" xml:space="preserve" y="307.88" clip-path="url(#clipPath2)" stroke="none">Зарегистрировоться</text>
      <ellipse rx="55" fill="none" ry="25" clip-path="url(#clipPath2)" cx="960" cy="304"/>
    </g>
    <g fill="rgb(255,204,0)" text-rendering="geometricPrecision" shape-rendering="geometricPrecision" transform="matrix(1,0,0,1,-608,-264)" stroke="rgb(255,204,0)">
      <ellipse rx="55" ry="25" clip-path="url(#clipPath2)" cx="960" cy="354" stroke="none"/>
    </g>
    <g font-size="10px" stroke-linecap="butt" transform="matrix(1,0,0,1,-608,-264)" text-rendering="geometricPrecision" font-family="sans-serif" shape-rendering="geometricPrecision" stroke-miterlimit="1.45">
      <text x="920.42" xml:space="preserve" y="357.88" clip-path="url(#clipPath2)" stroke="none">Войти в аккаунт</text>
      <ellipse rx="55" fill="none" ry="25" clip-path="url(#clipPath2)" cx="960" cy="354"/>
    </g>
    <g fill="rgb(255,204,0)" text-rendering="geometricPrecision" shape-rendering="geometricPrecision" transform="matrix(1,0,0,1,-608,-264)" stroke="rgb(255,204,0)">
      <ellipse rx="55" ry="25" clip-path="url(#clipPath2)" cx="960" cy="404" stroke="none"/>
    </g>
    <g font-size="10px" stroke-linecap="butt" transform="matrix(1,0,0,1,-608,-264)" text-rendering="geometricPrecision" font-family="sans-serif" shape-rendering="geometricPrecision" stroke-miterlimit="1.45">
      <text x="914.425" xml:space="preserve" y="407.88" clip-path="url(#clipPath2)" stroke="none">Посмотреть посты</text>
      <ellipse rx="55" fill="none" ry="25" clip-path="url(#clipPath2)" cx="960" cy="404"/>
    </g>
    <g fill="rgb(255,204,0)" text-rendering="geometricPrecision" shape-rendering="geometricPrecision" transform="matrix(1,0,0,1,-608,-264)" stroke="rgb(255,204,0)">
      <ellipse rx="55" ry="25" clip-path="url(#clipPath2)" cx="960" cy="454" stroke="none"/>
    </g>
    <g font-size="10px" stroke-linecap="butt" transform="matrix(1,0,0,1,-608,-264)" text-rendering="geometricPrecision" font-family="sans-serif" shape-rendering="geometricPrecision" stroke-miterlimit="1.45">
      <text x="895.415" xml:space="preserve" y="457.88" clip-path="url(#clipPath2)" stroke="none">Посмотреть комментарии</text>
      <ellipse rx="55" fill="none" ry="25" clip-path="url(#clipPath2)" cx="960" cy="454"/>
    </g>
    <g fill="rgb(255,204,0)" text-rendering="geometricPrecision" shape-rendering="geometricPrecision" transform="matrix(1,0,0,1,-608,-264)" stroke="rgb(255,204,0)">
      <ellipse rx="55" ry="25" clip-path="url(#clipPath2)" cx="960" cy="504" stroke="none"/>
    </g>
    <g font-size="10px" stroke-linecap="butt" transform="matrix(1,0,0,1,-608,-264)" text-rendering="geometricPrecision" font-family="sans-serif" shape-rendering="geometricPrecision" stroke-miterlimit="1.45">
      <text x="928.08" xml:space="preserve" y="507.88" clip-path="url(#clipPath2)" stroke="none">Создать пост</text>
      <ellipse rx="55" fill="none" ry="25" clip-path="url(#clipPath2)" cx="960" cy="504"/>
    </g>
    <g fill="rgb(255,204,0)" text-rendering="geometricPrecision" shape-rendering="geometricPrecision" transform="matrix(1,0,0,1,-608,-264)" stroke="rgb(255,204,0)">
      <ellipse rx="55" ry="25" clip-path="url(#clipPath2)" cx="960" cy="554" stroke="none"/>
    </g>
    <g font-size="10px" stroke-linecap="butt" transform="matrix(1,0,0,1,-608,-264)" text-rendering="geometricPrecision" font-family="sans-serif" shape-rendering="geometricPrecision" stroke-miterlimit="1.45">
      <text x="905.1801" xml:space="preserve" y="557.88" clip-path="url(#clipPath2)" stroke="none">Создать комментарий</text>
      <ellipse rx="55" fill="none" ry="25" clip-path="url(#clipPath2)" cx="960" cy="554"/>
    </g>
    <g fill="rgb(255,204,0)" text-rendering="geometricPrecision" shape-rendering="geometricPrecision" transform="matrix(1,0,0,1,-608,-264)" stroke="rgb(255,204,0)">
      <ellipse rx="55" ry="25" clip-path="url(#clipPath2)" cx="960" cy="604" stroke="none"/>
    </g>
    <g font-size="10px" stroke-linecap="butt" transform="matrix(1,0,0,1,-608,-264)" text-rendering="geometricPrecision" font-family="sans-serif" shape-rendering="geometricPrecision" stroke-miterlimit="1.45">
      <text x="921.4351" xml:space="preserve" y="607.88" clip-path="url(#clipPath2)" stroke="none">Поставить лайк</text>
      <ellipse rx="55" fill="none" ry="25" clip-path="url(#clipPath2)" cx="960" cy="604"/>
    </g>
    <g fill="rgb(255,204,0)" text-rendering="geometricPrecision" shape-rendering="geometricPrecision" transform="matrix(1,0,0,1,-608,-264)" stroke="rgb(255,204,0)">
      <ellipse rx="55" ry="25" clip-path="url(#clipPath2)" cx="960" cy="654" stroke="none"/>
    </g>
    <g font-size="10px" stroke-linecap="butt" transform="matrix(1,0,0,1,-608,-264)" text-rendering="geometricPrecision" font-family="sans-serif" shape-rendering="geometricPrecision" stroke-miterlimit="1.45">
      <text x="913.965" xml:space="preserve" y="657.88" clip-path="url(#clipPath2)" stroke="none">Выйти из аккаунта</text>
      <ellipse rx="55" fill="none" ry="25" clip-path="url(#clipPath2)" cx="960" cy="654"/>
    </g>
    <g fill="rgb(255,204,0)" text-rendering="geometricPrecision" shape-rendering="geometricPrecision" transform="matrix(1,0,0,1,-608,-264)" stroke="rgb(255,204,0)">
      <ellipse rx="55" ry="25" clip-path="url(#clipPath2)" cx="1299.6" cy="434" stroke="none"/>
    </g>
    <g font-size="10px" stroke-linecap="butt" transform="matrix(1,0,0,1,-608,-264)" text-rendering="geometricPrecision" font-family="sans-serif" shape-rendering="geometricPrecision" stroke-miterlimit="1.45">
      <text x="1267.0901" xml:space="preserve" y="437.88" clip-path="url(#clipPath2)" stroke="none">Удалить пост</text>
      <ellipse rx="55" fill="none" ry="25" clip-path="url(#clipPath2)" cx="1299.6" cy="434"/>
    </g>
    <g fill="rgb(255,204,0)" text-rendering="geometricPrecision" shape-rendering="geometricPrecision" transform="matrix(1,0,0,1,-608,-264)" stroke="rgb(255,204,0)">
      <ellipse rx="55" ry="25" clip-path="url(#clipPath2)" cx="1299.6" cy="484" stroke="none"/>
    </g>
    <g font-size="10px" stroke-linecap="butt" transform="matrix(1,0,0,1,-608,-264)" text-rendering="geometricPrecision" font-family="sans-serif" shape-rendering="geometricPrecision" stroke-miterlimit="1.45">
      <text x="1244.1901" xml:space="preserve" y="487.88" clip-path="url(#clipPath2)" stroke="none">Удалить комментарий</text>
      <ellipse rx="55" fill="none" ry="25" clip-path="url(#clipPath2)" cx="1299.6" cy="484"/>
    </g>
    <g fill="rgb(255,204,0)" text-rendering="geometricPrecision" shape-rendering="geometricPrecision" transform="matrix(1,0,0,1,-608,-264)" stroke="rgb(255,204,0)">
      <ellipse rx="55" ry="25" clip-path="url(#clipPath2)" cx="1299.6" cy="534" stroke="none"/>
    </g>
    <g font-size="10px" stroke-linecap="butt" transform="matrix(1,0,0,1,-608,-264)" text-rendering="geometricPrecision" font-family="sans-serif" shape-rendering="geometricPrecision" stroke-miterlimit="1.45">
      <text x="1243.9651" xml:space="preserve" y="537.88" clip-path="url(#clipPath2)" stroke="none">Удалить пользователя</text>
      <ellipse rx="55" fill="none" ry="25" clip-path="url(#clipPath2)" cx="1299.6" cy="534"/>
    </g>
    <g text-rendering="geometricPrecision" shape-rendering="geometricPrecision" transform="matrix(1.4743,0,0,1.4523,102.9767,165)">
      <g clip-path="url(#clipPath3)">
        <svg xmlns:svg="http://www.w3.org/2000/svg" xmlns:sodipodi="http://sodipodi.sourceforge.net/DTD/sodipodi-0.dtd" xmlns:inkscape="http://www.inkscape.org/namespaces/inkscape" xmlns:dc="http://purl.org/dc/elements/1.1/" xmlns:cc="http://web.resource.org/cc/" xmlns:rdf="http://www.w3.org/1999/02/22-rdf-syntax-ns#" opacity="1" writing-mode="lr-tb" stop-color="rgb(0, 0, 0)" shape-rendering="auto" glyph-orientation-horizontal="0deg" color-profile="auto" lighting-color="rgb(255, 255, 255)" color="rgb(0, 0, 0)" font-weight="400" alignment-baseline="auto" font-style="normal" version="1.0" color-interpolation-filters="linearrgb" text-anchor="start" stroke-linecap="butt" color-interpolation="srgb" font-variant="normal" word-spacing="normal" fill-opacity="1" text-rendering="auto" clip-path="none" text-decoration="none" letter-spacing="normal" glyph-orientation-vertical="auto" display="inline" font-size-adjust="none" overflow="hidden" fill="rgb(0, 0, 0)" font-stretch="normal" stroke-dasharray="none" inkscape:version="0.45.1" id="svg1.svg2" stroke-miterlimit="4" stop-opacity="1" color-rendering="auto" font-size="12" sodipodi:docbase="C:\Daten\alberts\projects\yfx" pointer-events="visiblepainted" mask="none" direction="ltr" baseline-shift="baseline" sodipodi:docname="uml_actor.svg" enable-background="accumulate" fill-rule="nonzero" image-rendering="auto" stroke-dashoffset="0" inkscape:output_extension="org.inkscape.output.svg.inkscape" marker-end="none" width="41" clip="auto" cursor="auto" stroke="none" filter="none" visibility="visible" kerning="auto" stroke-width="1" font-family="&quot;Arial&quot;,&quot;Helvetica&quot;,sans-serif" flood-opacity="1" clip-rule="nonzero" src="none" height="68.997391" unicode-bidi="normal" sodipodi:version="0.32" stroke-linejoin="miter" stroke-opacity="1" flood-color="rgb(0, 0, 0)" dominant-baseline="auto" marker-start="none" marker-mid="none">
            
          <defs id="svg1.defs4">
            <clipPath clipPathUnits="userSpaceOnUse" id="clipPath1">
              <path d="M0 0 L765 0 L765 430 L0 430 L0 0 Z"/>
            </clipPath>
            <clipPath clipPathUnits="userSpaceOnUse" id="clipPath2">
              <path d="M608 264 L1373 264 L1373 694 L608 694 L608 264 Z"/>
            </clipPath>
            <clipPath clipPathUnits="userSpaceOnUse" id="clipPath3">
              <path d="M-69.8475 -113.6122 L449.04 -113.6122 L449.04 182.4681 L-69.8475 182.4681 L-69.8475 -113.6122 Z"/>
            </clipPath>
            <clipPath clipPathUnits="userSpaceOnUse" id="clipPath4">
              <path d="M-330.9869 -113.6122 L187.9006 -113.6122 L187.9006 182.4681 L-330.9869 182.4681 L-330.9869 -113.6122 Z"/>
            </clipPath>
          </defs>
            
  
          <metadata id="svg1.metadata7">
    
  </metadata>
            
          <g inkscape:groupmode="layer" id="svg1.layer1" transform="translate(-29.5,-42.959476)" inkscape:label="Ebene 1">
                
            <a id="svg1.a3142" transform="matrix(1.0873906,0,0,1,-4.4741999,0)">
                    
              <path transform="translate(11.586889,5.2908993)" style="fill:none;fill-rule:evenodd;stroke:#000000;stroke-width:1px;stroke-linecap:butt;stroke-linejoin:miter;stroke-opacity:1" sodipodi:cx="38.509369" sodipodi:cy="47.36993" sodipodi:rx="8.5197716" id="svg1.path2160" d="M 47.02914 47.36993 A 8.5197716 9.2013531 0 1 1  29.989597,47.36993 A 8.5197716 9.2013531 0 1 1  47.02914 47.36993 z" sodipodi:ry="9.2013531" sodipodi:type="arc"/>
                  
            </a>
                
            <path style="fill:none" sodipodi:cx="43.962021" sodipodi:cy="48.392303" d="M 47.71072 48.392303 A 3.7486994 0 0 1 1  40.213321,48.392303 A 3.7486994 0 0 1 1  47.71072 48.392303 z" id="svg1.path3134" sodipodi:rx="3.7486994" sodipodi:ry="0" sodipodi:type="arc"/>
                
            <path style="fill:none;fill-rule:evenodd;stroke:#000000;stroke-width:1.24319649px;stroke-linecap:butt;stroke-linejoin:miter;stroke-opacity:1" d="M 50,61.33709 C 50,91.363211 50,92.247838 50,92.247838" id="svg1.path3136"/>
                
            <path style="fill:none;fill-rule:evenodd;stroke:#000000;stroke-width:1px;stroke-linecap:butt;stroke-linejoin:miter;stroke-opacity:1" d="M 69.760668,72.362183 C 69.760668,72.362183 69.760668,72.362183 50.239332,72.362183 C 30.239332,72.362183 30.239332,72.362183 30.239332,72.362183 L 30.239332,72.362183" id="svg1.path3138"/>
                
            <path style="fill:none;fill-rule:evenodd;stroke:#000000;stroke-width:1px;stroke-linecap:butt;stroke-linejoin:miter;stroke-opacity:1" d="M 30,111.45687 C 30,111.45687 30,111.45687 50,92.013532 C 70,111.45687 70,111.45687 70,111.45687" id="svg1.path3140"/>
              
          </g>
          
        </svg>
      </g>
    </g>
    <g font-size="13px" stroke-linecap="butt" transform="matrix(1,0,0,1,-608,-264)" text-rendering="geometricPrecision" font-family="sans-serif" shape-rendering="geometricPrecision" stroke-miterlimit="1.45">
      <text x="625.6624" xml:space="preserve" y="548.897" clip-path="url(#clipPath2)" stroke="none">Зарегистрированный пользователь</text>
    </g>
    <g text-rendering="geometricPrecision" shape-rendering="geometricPrecision" transform="matrix(1.4743,0,0,1.4523,487.9767,165)">
      <g clip-path="url(#clipPath4)">
        <svg xmlns:svg="http://www.w3.org/2000/svg" xmlns:sodipodi="http://sodipodi.sourceforge.net/DTD/sodipodi-0.dtd" xmlns:inkscape="http://www.inkscape.org/namespaces/inkscape" xmlns:dc="http://purl.org/dc/elements/1.1/" xmlns:cc="http://web.resource.org/cc/" xmlns:rdf="http://www.w3.org/1999/02/22-rdf-syntax-ns#" opacity="1" writing-mode="lr-tb" stop-color="rgb(0, 0, 0)" shape-rendering="auto" glyph-orientation-horizontal="0deg" color-profile="auto" lighting-color="rgb(255, 255, 255)" color="rgb(0, 0, 0)" font-weight="400" alignment-baseline="auto" font-style="normal" version="1.0" color-interpolation-filters="linearrgb" text-anchor="start" stroke-linecap="butt" color-interpolation="srgb" font-variant="normal" word-spacing="normal" fill-opacity="1" text-rendering="auto" clip-path="none" text-decoration="none" letter-spacing="normal" glyph-orientation-vertical="auto" display="inline" font-size-adjust="none" overflow="hidden" fill="rgb(0, 0, 0)" font-stretch="normal" stroke-dasharray="none" inkscape:version="0.45.1" id="svg2.svg2" stroke-miterlimit="4" stop-opacity="1" color-rendering="auto" font-size="12" sodipodi:docbase="C:\Daten\alberts\projects\yfx" pointer-events="visiblepainted" mask="none" direction="ltr" baseline-shift="baseline" sodipodi:docname="uml_actor.svg" enable-background="accumulate" fill-rule="nonzero" image-rendering="auto" stroke-dashoffset="0" inkscape:output_extension="org.inkscape.output.svg.inkscape" marker-end="none" width="41" clip="auto" cursor="auto" stroke="none" filter="none" visibility="visible" kerning="auto" stroke-width="1" font-family="&quot;Arial&quot;,&quot;Helvetica&quot;,sans-serif" flood-opacity="1" clip-rule="nonzero" src="none" height="68.997391" unicode-bidi="normal" sodipodi:version="0.32" stroke-linejoin="miter" stroke-opacity="1" flood-color="rgb(0, 0, 0)" dominant-baseline="auto" marker-start="none" marker-mid="none">
            
          <defs id="svg2.defs4"/>
            
  
          <metadata id="svg2.metadata7">
    
  </metadata>
            
          <g inkscape:groupmode="layer" id="svg2.layer1" transform="translate(-29.5,-42.959476)" inkscape:label="Ebene 1">
                
            <a id="svg2.a3142" transform="matrix(1.0873906,0,0,1,-4.4741999,0)">
                    
              <path transform="translate(11.586889,5.2908993)" style="fill:none;fill-rule:evenodd;stroke:#000000;stroke-width:1px;stroke-linecap:butt;stroke-linejoin:miter;stroke-opacity:1" sodipodi:cx="38.509369" sodipodi:cy="47.36993" sodipodi:rx="8.5197716" id="svg2.path2160" d="M 47.02914 47.36993 A 8.5197716 9.2013531 0 1 1  29.989597,47.36993 A 8.5197716 9.2013531 0 1 1  47.02914 47.36993 z" sodipodi:ry="9.2013531" sodipodi:type="arc"/>
                  
            </a>
                
            <path style="fill:none" sodipodi:cx="43.962021" sodipodi:cy="48.392303" d="M 47.71072 48.392303 A 3.7486994 0 0 1 1  40.213321,48.392303 A 3.7486994 0 0 1 1  47.71072 48.392303 z" id="svg2.path3134" sodipodi:rx="3.7486994" sodipodi:ry="0" sodipodi:type="arc"/>
                
            <path style="fill:none;fill-rule:evenodd;stroke:#000000;stroke-width:1.24319649px;stroke-linecap:butt;stroke-linejoin:miter;stroke-opacity:1" d="M 50,61.33709 C 50,91.363211 50,92.247838 50,92.247838" id="svg2.path3136"/>
                
            <path style="fill:none;fill-rule:evenodd;stroke:#000000;stroke-width:1px;stroke-linecap:butt;stroke-linejoin:miter;stroke-opacity:1" d="M 69.760668,72.362183 C 69.760668,72.362183 69.760668,72.362183 50.239332,72.362183 C 30.239332,72.362183 30.239332,72.362183 30.239332,72.362183 L 30.239332,72.362183" id="svg2.path3138"/>
                
            <path style="fill:none;fill-rule:evenodd;stroke:#000000;stroke-width:1px;stroke-linecap:butt;stroke-linejoin:miter;stroke-opacity:1" d="M 30,111.45687 C 30,111.45687 30,111.45687 50,92.013532 C 70,111.45687 70,111.45687 70,111.45687" id="svg2.path3140"/>
              
          </g>
          
        </svg>
      </g>
    </g>
    <g font-size="13px" stroke-linecap="butt" transform="matrix(1,0,0,1,-608,-264)" text-rendering="geometricPrecision" font-family="sans-serif" shape-rendering="geometricPrecision" stroke-miterlimit="1.45">
      <text x="1076.553" xml:space="preserve" y="548.897" clip-path="url(#clipPath2)" stroke="none">Админестратор</text>
      <path fill="none" d="M741.2 428.9695 L741.2 304 L897 304" clip-path="url(#clipPath2)"/>
      <path d="M905 304 L893 299 L896 304 L893 309 Z" stroke="none" clip-path="url(#clipPath2)"/>
      <path fill="none" d="M741.2 428.9817 L741.2 354 L897 354" clip-path="url(#clipPath2)"/>
      <path d="M905 354 L893 349 L896 354 L893 359 Z" stroke="none" clip-path="url(#clipPath2)"/>
      <path fill="none" d="M741.2 429.0122 L741.2 404 L897 404" clip-path="url(#clipPath2)"/>
      <path d="M905 404 L893 399 L896 404 L893 409 Z" stroke="none" clip-path="url(#clipPath2)"/>
      <path fill="none" d="M771.1942 454 L897 454" clip-path="url(#clipPath2)"/>
      <path d="M905 454 L893 449 L896 454 L893 459 Z" stroke="none" clip-path="url(#clipPath2)"/>
      <path fill="none" d="M771.1942 504 L897 504" clip-path="url(#clipPath2)"/>
      <path d="M905 504 L893 499 L896 504 L893 509 Z" stroke="none" clip-path="url(#clipPath2)"/>
      <path fill="none" d="M741.2 528.9878 L741.2 554 L897 554" clip-path="url(#clipPath2)"/>
      <path d="M905 554 L893 549 L896 554 L893 559 Z" stroke="none" clip-path="url(#clipPath2)"/>
      <path fill="none" d="M741.2 529.0183 L741.2 604 L897 604" clip-path="url(#clipPath2)"/>
      <path d="M905 604 L893 599 L896 604 L893 609 Z" stroke="none" clip-path="url(#clipPath2)"/>
      <path fill="none" d="M741.2 529.0305 L741.2 654 L897 654" clip-path="url(#clipPath2)"/>
      <path d="M905 654 L893 649 L896 654 L893 659 Z" stroke="none" clip-path="url(#clipPath2)"/>
      <path fill="none" d="M1126.2 428.9695 L1126.2 304 L1023 304" clip-path="url(#clipPath2)"/>
      <path d="M1015 304 L1027 309 L1024 304 L1027 299 Z" stroke="none" clip-path="url(#clipPath2)"/>
      <path fill="none" d="M1126.2 429.0228 L1126.2 357.8 L1022.3315 357.8" clip-path="url(#clipPath2)"/>
      <path d="M1014.3315 357.8 L1026.3315 362.8 L1023.3315 357.8 L1026.3315 352.8 Z" stroke="none" clip-path="url(#clipPath2)"/>
      <path fill="none" d="M1126.2 429.0122 L1126.2 404 L1023 404" clip-path="url(#clipPath2)"/>
      <path d="M1015 404 L1027 409 L1024 404 L1027 399 Z" stroke="none" clip-path="url(#clipPath2)"/>
      <path fill="none" d="M1096.1973 454 L1023.0225 454" clip-path="url(#clipPath2)"/>
      <path d="M1015.0225 454 L1027.0225 459 L1024.0225 454 L1027.0225 449 Z" stroke="none" clip-path="url(#clipPath2)"/>
      <path fill="none" d="M1096.2142 504 L1023 504" clip-path="url(#clipPath2)"/>
      <path d="M1015 504 L1027 509 L1024 504 L1027 499 Z" stroke="none" clip-path="url(#clipPath2)"/>
      <path fill="none" d="M1126.2 528.9878 L1126.2 554 L1023 554" clip-path="url(#clipPath2)"/>
      <path d="M1015 554 L1027 559 L1024 554 L1027 549 Z" stroke="none" clip-path="url(#clipPath2)"/>
      <path fill="none" d="M1126.2 529.0183 L1126.2 604 L1023 604" clip-path="url(#clipPath2)"/>
      <path d="M1015 604 L1027 609 L1024 604 L1027 599 Z" stroke="none" clip-path="url(#clipPath2)"/>
      <path fill="none" d="M1126.2 529.0305 L1126.2 654 L1023 654" clip-path="url(#clipPath2)"/>
      <path d="M1015 654 L1027 659 L1024 654 L1027 649 Z" stroke="none" clip-path="url(#clipPath2)"/>
      <path fill="none" d="M1156.2148 429 L1212.9 429 L1212.9 434 L1236.6271 434" clip-path="url(#clipPath2)"/>
      <path d="M1244.6271 434 L1232.6271 429 L1235.6271 434 L1232.6271 439 Z" stroke="none" clip-path="url(#clipPath2)"/>
      <path fill="none" d="M1156.2148 479 L1212.9 479 L1212.9 484 L1236.6 484" clip-path="url(#clipPath2)"/>
      <path d="M1244.6 484 L1232.6 479 L1235.6 484 L1232.6 489 Z" stroke="none" clip-path="url(#clipPath2)"/>
      <path fill="none" d="M1156.2148 529 L1212.9 529 L1212.9 534 L1236.6 534" clip-path="url(#clipPath2)"/>
      <path d="M1244.6 534 L1232.6 529 L1235.6 534 L1232.6 539 Z" stroke="none" clip-path="url(#clipPath2)"/>
    </g>
  </g>
</svg>
